<?xml version="1.0" encoding="utf-8"?>
<!-- Generator: Adobe Illustrator 27.0.0, SVG Export Plug-In . SVG Version: 6.00 Build 0)  -->
<svg version="1.1" id="Шар_1" xmlns="http://www.w3.org/2000/svg" xmlns:xlink="http://www.w3.org/1999/xlink" x="0px" y="0px"
	 viewBox="0 0 1920 1080" style="enable-background:new 0 0 1920 1080;" xml:space="preserve">
<style type="text/css">
	.st0{fill:#DFF7FA;}
	.st1{fill:url(#SVGID_1_);}
</style>
<path class="st0" d="M1860.6,840.6V48.5H929c0,0-89.3,57.2-70.7,155.8s53.3,124,89.3,153c35.9,29,96.2,80,100.8,165.8
	s82.3,142.8,128.7,146c117.1,8.1,131.1-0.4,195.2,31.7c38,19,94.6,85.4,114.3,97c19.7,11.6,95,63.8,200.5,69.5
	S1860.6,840.6,1860.6,840.6z"/>
<linearGradient id="SVGID_1_" gradientUnits="userSpaceOnUse" x1="1171.3079" y1="672.6905" x2="1881.9991" y2="-38.0008">
	<stop  offset="0" style="stop-color:#00BFD8"/>
	<stop  offset="5.344170e-02" style="stop-color:#00BFD8"/>
	<stop  offset="0.3781" style="stop-color:#00BFD8"/>
	<stop  offset="0.7734" style="stop-color:#0093ED"/>
	<stop  offset="1" style="stop-color:#007EF7"/>
</linearGradient>
<path class="st1" d="M1920,838.9V0H933.3c0,0-94.5,60.6-74.9,165s56.5,131.4,94.5,162c38.1,30.7,101.9,84.7,106.8,175.6
	c4.9,90.8,87.2,151.3,136.3,154.7c124.1,8.6,138.8-0.4,206.7,33.6c40.3,20.1,100.2,90.4,121,102.7c20.9,12.3,100.7,67.5,212.4,73.7
	C1847.9,873.3,1920,838.9,1920,838.9z"/>
</svg>
